<?xml version="1.0" encoding="utf-8"?>
<!-- Generator: Adobe Illustrator 25.2.3, SVG Export Plug-In . SVG Version: 6.00 Build 0)  -->
<svg version="1.1" id="Layer_1" xmlns="http://www.w3.org/2000/svg" xmlns:xlink="http://www.w3.org/1999/xlink" x="0px" y="0px"
	 viewBox="0 0 128 128" style="enable-background:new 0 0 128 128;" xml:space="preserve">
<style type="text/css">
	.st0{fill:#393E47;}
	.st1{fill:#B59959;}
	.st2{fill:#C0C0C0;}
</style>
<g>
	<circle class="st0" cx="64" cy="64" r="59"/>
	<path class="st1" d="M64,10c29.8,0,54,24.2,54,54s-24.2,54-54,54S10,93.8,10,64S34.2,10,64,10 M64,0C28.6,0,0,28.6,0,64
		s28.6,64,64,64s64-28.7,64-64S99.3,0,64,0L64,0z"/>
</g>
<path class="st2" d="M25.6,51.2c0.4-0.2,3.2-0.9,7.3-1.8c0.9,0,1.5,0,1.5,0s-0.3,0.6-1.6,1.5c-1.1,0.5-6.2,1.6-7,1.3
	C25.1,51.8,25.6,51.2,25.6,51.2z"/>
<path class="st2" d="M68,42.8c0.2-0.2,3.1,5,4.3,7.9c-0.8,0.3-2.5,0.7-3.5,1.5C68.8,45.1,67.7,42.7,68,42.8z"/>
<path class="st2" d="M103.5,64.2c-2.8-1.5-18.2-7.2-19.4-7.9c-0.6-2.1-2.9-13-5.7-18.6c-3.8-4-13.3-9.3-16.3-9.8
	c-3.9-0.6-13-0.9-13-0.9s0.5-1.4-0.8-2.4c-3.8-2.6-14.7,1-15.3,5.1c-0.2,1.4,0.1,2,1,2.7c-2.5,2.1-11.8,11-13.2,22.1
	c-0.6,8.6,3.9,20.8,5.1,22.8c1.8,1.3,17.8,6.2,19.3,6.5c2.6,1.3,5.9,2.8,6.9,3c0.1,0.6,0.2,0.7,0.2,1.1c-1.5-0.4-19.7-5.6-23.5-7.8
	c2.8,7.7,3.4,8.4,5.4,11.5c5.2,7.8,20.6,15.4,36.4,11.4c4-1.4,16.3-12.5,16.2-28.3c0.7-0.5,1.9-1,3-1.1c4.6,1.2,11.5,3.8,15.3,4.5
	c0.6,0.1,1.3,0.3,1.8-0.6C108.3,73.3,106.3,66.5,103.5,64.2z M95.9,67.9c-0.5-0.4-18.2-7.6-18.4-7.7c0.2-0.2,0.9-0.4,0.9-0.4
	s17,6.2,18.3,7.6c0.1,0.2,0.5,0.5,0.5,1c-0.4-0.1-1,0.1-1,0.1S96.1,68.2,95.9,67.9z M73.3,41.5c0.2-0.2,2.7,0.9,4,1.4
	c0.3,0.3,0.6,0.4,0.9,1c0.6,1.5,1.4,6.3,1.4,6.3s0.3,0.1,0.6,0.2c0.6,0.5,0.7,3,0.8,5.9c-0.1,0.6-0.4,0.7-0.6,0.7
	c-1.6-0.1-2.2-0.1-3.8-0.1c0-0.5,0.3-3.1-0.5-7C75.4,46.9,73.3,41.8,73.3,41.5z M65.4,43.1c0-0.5,0.3-0.8,0.4-1c0.6-0.6,2.4-1,3.1-1
	c0.4,0.2,1,0.8,1.3,1.1c0.6,1,3.9,6.9,4.2,8.3c0.6,1.8,1.7,5.7,1.7,6.3c-0.5,0.1-1.5,0.4-1.7,0.6c-0.5-3.1-1-4.4-1.4-5.6
	c-1.7,0.5-2.9,1-4.2,1.7c-0.2,0.9-1,6.9-1,7.7c-1,0.6-2,1.3-3.2,2.3C64.6,61.2,66,54.8,66,51C66.1,48.7,65.4,43.6,65.4,43.1z M64,67
	c0.5,0.3,18.6,8,18.6,8s-0.4,0.2-0.6,0.5c-0.7-0.2-18.2-7.2-19.1-7.6C63.1,67.5,63.6,67.2,64,67z M27.4,75.4c-0.4-1-0.8-2.2-0.8-2.2
	s7.6,3.1,12.3,3.1c-1-0.4-3.3-1.4-3.3-1.4s-8.6-3.3-9.9-4.4c-0.7-2.4-2.4-8-2.8-12.8c-0.1-2.8-0.1-6,1.8-9.6
	c6.9-10.7,13.7-15.4,17.5-14.7c-1.4,2.2-3.2,6.8-3.8,15.7c0.2,9.2,2.5,24,3.9,28.6c0.8,1.7,1.7,3.5,1.7,3.5S29.7,76.6,27.4,75.4z
	 M36.8,30.4c-2.3-0.4-1.7-1-1.6-1.5c0.3-0.4,3-3.1,9.8-3.4c1.7,0,2.3,0.7,1.7,1.7C45.6,28.3,42.7,30.4,36.8,30.4z M47.2,52
	c2.3-1.8,9.3-5.6,11.1-6.4c0.6,0.3,1.3,0.9,1.6,1.1c0.3,0.5,0.8,4.6,0.8,4.6S57,53.4,57,53.2s-0.4-5-0.4-5s-5.4,2.9-6.2,3.6
	c-0.3,2.3,0.2,8.2,0.2,9.9c0.2,1.9,1.3,9.2,1.3,9.2l7-5l-0.6-8.1c0,0-3.6,2.2-5.1,2.9c-0.1-0.7-0.1-1.4,0.1-1.8
	c0.6-0.6,6.7-3.9,7-3.9c0.4,0.2,1.3,1,1.7,1.7c0.2,0.6,0.6,7.3,0.6,8.4c-0.3,0.4-10.6,8.1-11.5,8.6c-1,0.6-3-1.9-3-1.9s-1-4.8-1.1-8
	C46.7,60.4,46.9,53.3,47.2,52z M70.4,91.3c-1,0.8-6.6,3-9.6,3.9c-0.7,0.2-2.1,0.1-2.1,0.1s-3.5-0.6-4.2-2.4
	c-0.7-1.7-0.8-4.5-0.8-5.2c1.5,0.5,5.2,1.7,8.6,2c3.5,0.4,4,0.3,5.5,0.1c1-0.2,2.9-0.8,3.8-1.1C71.3,89.2,70.9,90.7,70.4,91.3z
	 M72.4,84.5c-2.4,1.9-4,2.4-5.9,2.4c-10,0.3-18-4.5-18.8-5.1c-0.2-2.5,11.8-12.6,14.1-13.7c2.8,1.3,17.4,7,18.9,7.8
	C78.3,78.2,75,82.3,72.4,84.5z M85.3,83.2c-0.2,0.5-0.9,1.7-1.7,2.3c-1.1,0.6-4.5,2.2-5.9,2.7c-2.1,0.3-2.4-0.6-2.4-0.6
	s-0.4-0.9-0.3-2.2c0,0,3.8-5.2,10.4-9.6c0.3-0.1,0.4,0,0.5,0C86.4,77.6,85.5,82.7,85.3,83.2z M71.3,62.6c0,0,3.2-1.8,5.3-2.2
	c3.1,1,16.3,6.5,18.4,7.4c0.4,0.2,0.5,0.6,0.4,0.8c-1.1,0.1-3.8,1-5.1,1.4C86.4,69,73.3,63.4,71.3,62.6z M104.9,76
	c-3.4-0.4-11.4-3.4-10.9-4.1c0.5-0.7,3.5-1.7,5.1-1.2c2.5,0.5,3.8,2.1,4.7,3.1c-0.3-1.4-1.1-3-3.1-4.5c0.7-2.5-0.8-3.3-0.8-3.3
	l-14.1-6.4c0,0,0.3-0.1,0.6,0c1.4,0.6,11.8,4.3,15.2,5.9C106.8,71.3,105.3,75.2,104.9,76z"/>
<path class="st2" d="M75,43.2c0,0,1.7,5,2.3,6.8c0.4,2.1,0.6,5.2,0.5,5.9c0.8,0,1.6,0,1.9,0.2c0.3-1.2,0-4.5-0.3-4.8
	c-0.4-0.2-0.7-0.3-1.8-0.6c-0.1-0.6-0.2-1-0.3-1.2c0.5,0.2,0.8,0.3,1.1,0.4c0.1-0.9-1.3-5.6-1.7-6C76.3,43.7,75,43.2,75,43.2z"/>
</svg>
