<?xml version="1.0" encoding="utf-8"?>
<!-- Generator: Adobe Illustrator 25.4.1, SVG Export Plug-In . SVG Version: 6.00 Build 0)  -->
<svg version="1.1" id="Layer_1" xmlns="http://www.w3.org/2000/svg" xmlns:xlink="http://www.w3.org/1999/xlink" x="0px" y="0px"
	 viewBox="0 0 128 128" style="enable-background:new 0 0 128 128;" xml:space="preserve">
<style type="text/css">
	.st0{fill:#8195A6;}
</style>
<path class="st0" d="M121.2,92.7c0.3-0.5,0.5-1.1,0.8-1.6c0.1-0.2,0.1-0.3,0.2-0.5c0.4-0.9,0.8-1.9,1.2-2.8c0.1-0.3,0.2-0.6,0.4-0.9
	c0.2-0.5,0.4-1,0.5-1.4c0.2-0.4,0.3-0.9,0.4-1.3c0.2-0.6,0.4-1.3,0.6-1.9c0.1-0.5,0.3-1,0.4-1.5c0.1-0.4,0.2-0.8,0.3-1.2
	c0.2-0.7,0.3-1.4,0.5-2.2c0.1-0.3,0.1-0.6,0.2-1c0.1-0.7,0.3-1.4,0.4-2.1c0-0.3,0.1-0.6,0.1-0.9c0.1-0.9,0.3-1.8,0.3-2.7
	c0-0.1,0-0.2,0-0.2c0.1-0.9,0.2-1.8,0.2-2.7c0-0.3,0-0.5,0-0.8c0-1,0.1-1.9,0.1-2.9c0-35.3-28.7-64-64-64S0,28.7,0,64
	c0,1,0,2,0.1,2.9c0,0.3,0,0.5,0,0.8c0.1,0.9,0.1,1.8,0.2,2.7c0,0.1,0,0.2,0,0.2c0.1,0.9,0.2,1.8,0.3,2.7c0,0.3,0.1,0.6,0.1,0.9
	c0.1,0.7,0.2,1.4,0.4,2.1c0.1,0.3,0.1,0.6,0.2,1c0.2,0.7,0.3,1.4,0.5,2.2c0.1,0.4,0.2,0.8,0.3,1.2c0.1,0.5,0.3,1,0.4,1.5
	C2.8,82.8,3,83.4,3.2,84c0.1,0.4,0.3,0.9,0.4,1.3c0.2,0.5,0.3,1,0.5,1.4c0.1,0.3,0.2,0.6,0.4,0.9c0.4,1,0.8,1.9,1.2,2.8
	C5.8,90.7,5.9,90.9,6,91c0.3,0.5,0.5,1.1,0.8,1.6C6.9,92.8,7,93,7,93.2C17.7,113.9,39.2,128,64,128s46.3-14.1,57-34.8
	C121,93,121.1,92.8,121.2,92.7z M64,121c-21.7,0-40.6-12.2-50.2-30.1C23.3,81,35.6,74,49.5,71c-8.4-5-14-14.1-14-24.5
	C35.5,30.8,48.3,18,64,18s28.5,12.8,28.5,28.5c0,10.4-5.6,19.6-14,24.5c13.9,2.9,26.2,10,35.7,19.9C104.6,108.8,85.7,121,64,121z"/>
</svg>
