<?xml version="1.0" encoding="utf-8"?>
<!-- Generator: Adobe Illustrator 25.2.3, SVG Export Plug-In . SVG Version: 6.00 Build 0)  -->
<svg version="1.1" id="Layer_1" xmlns="http://www.w3.org/2000/svg" xmlns:xlink="http://www.w3.org/1999/xlink" x="0px" y="0px"
	 viewBox="0 0 128 128" style="enable-background:new 0 0 128 128;" xml:space="preserve">
<style type="text/css">
	.st0{fill:#393E47;}
	.st1{fill:#B59959;}
	.st2{fill:none;}
	.st3{fill:#C0C0C0;}
</style>
<g>
	<circle class="st0" cx="64" cy="64" r="59"/>
	<path class="st1" d="M64,10c29.8,0,54,24.2,54,54s-24.2,54-54,54S10,93.8,10,64S34.2,10,64,10 M64,0C28.6,0,0,28.6,0,64
		s28.6,64,64,64s64-28.7,64-64S99.3,0,64,0L64,0z"/>
</g>
<g>
	<path class="st2" d="M74.9,31.2c-0.8-0.8-2.1-0.2-2.1,0.9l-0.1,14.6c0,0.7,0.5,1.2,1.2,1.2l14.6-0.1c1.1,0,1.6-1.3,0.9-2.1
		L74.9,31.2z"/>
	<path class="st3" d="M59.1,67.2c-0.4-0.3-0.9-0.4-1.5-0.4c-0.4,0-0.8,0.1-1.1,0.2s-0.6,0.4-0.9,0.7s-0.4,0.7-0.6,1.1
		s-0.2,1-0.2,1.5c0,0.6,0.1,1.1,0.2,1.5c0.1,0.5,0.3,0.8,0.6,1.1c0.3,0.3,0.6,0.5,0.9,0.7s0.7,0.2,1.1,0.2c0.5,0,1-0.1,1.4-0.4
		s0.8-0.7,1-1.2c0.3-0.5,0.4-1.2,0.4-2c0-0.7-0.1-1.4-0.4-1.9S59.6,67.5,59.1,67.2z"/>
	<path class="st3" d="M75.6,29.3H43.4c-4.1,0-7.4,3.3-7.4,7.4v54.5c0,4.1,3.3,7.4,7.4,7.4h41.2c4.1,0,7.4-3.3,7.4-7.4V45.8
		L75.6,29.3z M52.3,75.1c-0.2,0.2-0.4,0.2-0.8,0.2h-4.9c-0.4,0-0.8-0.1-1-0.3s-0.3-0.5-0.3-1v-7.7c0-0.4,0.1-0.7,0.3-0.9
		s0.4-0.3,0.7-0.3c0.3,0,0.6,0.1,0.7,0.3s0.3,0.5,0.3,0.9v7.3h4.1c0.3,0,0.6,0.1,0.8,0.2s0.3,0.4,0.3,0.6
		C52.6,74.8,52.5,75,52.3,75.1z M62.3,72.4c-0.2,0.6-0.5,1.2-0.9,1.6s-0.9,0.8-1.5,1.1s-1.3,0.4-2.1,0.4c-0.8,0-1.5-0.1-2.1-0.4
		c-0.6-0.3-1.1-0.6-1.6-1.1s-0.7-1-0.9-1.7c-0.2-0.6-0.3-1.3-0.3-2.1c0-0.8,0.1-1.5,0.3-2.1s0.5-1.2,1-1.6s0.9-0.8,1.5-1
		s1.3-0.4,2.1-0.4c1,0,1.9,0.2,2.7,0.6s1.3,1,1.7,1.8s0.6,1.7,0.6,2.7C62.6,71.1,62.5,71.8,62.3,72.4z M73.5,73.2
		c0,0.3,0,0.5-0.1,0.6c-0.1,0.2-0.1,0.3-0.3,0.4c-0.1,0.1-0.3,0.2-0.5,0.4c-0.6,0.3-1.2,0.6-1.8,0.7s-1.2,0.2-1.8,0.2
		c-0.8,0-1.5-0.1-2.1-0.4c-0.6-0.2-1.2-0.6-1.6-1c-0.4-0.5-0.8-1-1-1.6s-0.4-1.4-0.4-2.2c0-0.8,0.1-1.5,0.3-2.1s0.6-1.2,1-1.6
		c0.5-0.5,1-0.8,1.6-1c0.6-0.2,1.4-0.4,2.2-0.4c0.7,0,1.3,0.1,1.8,0.3s0.9,0.4,1.3,0.7c0.3,0.3,0.6,0.6,0.7,0.9s0.2,0.6,0.2,0.8
		c0,0.3-0.1,0.5-0.3,0.7c-0.2,0.2-0.4,0.3-0.7,0.3c-0.1,0-0.3,0-0.4-0.1c-0.1-0.1-0.2-0.2-0.3-0.3c-0.3-0.4-0.5-0.7-0.6-0.9
		c-0.2-0.2-0.4-0.4-0.7-0.5s-0.7-0.2-1.1-0.2c-0.5,0-0.9,0.1-1.3,0.2s-0.7,0.4-0.9,0.7c-0.3,0.3-0.5,0.7-0.6,1.1
		C66,69.2,66,69.7,66,70.3c0,1.2,0.3,2.1,0.8,2.7s1.3,1,2.3,1c0.5,0,0.9-0.1,1.3-0.2c0.4-0.1,0.8-0.3,1.3-0.5v-1.6H70
		c-0.4,0-0.7-0.1-0.9-0.2c-0.2-0.1-0.3-0.3-0.3-0.6c0-0.2,0.1-0.4,0.2-0.6c0.2-0.1,0.4-0.2,0.7-0.2h2.3c0.3,0,0.5,0,0.7,0.1
		c0.2,0.1,0.4,0.2,0.5,0.3c0.1,0.2,0.2,0.4,0.2,0.8V73.2z M82.5,74c-0.3,0.5-0.8,0.9-1.4,1.1s-1.3,0.4-2.1,0.4c-1,0-1.8-0.2-2.4-0.6
		c-0.5-0.3-0.8-0.6-1.1-1.1C75.2,73.4,75,73,75,72.6c0-0.2,0.1-0.5,0.3-0.6c0.2-0.2,0.4-0.3,0.7-0.3c0.2,0,0.4,0.1,0.5,0.2
		c0.1,0.1,0.3,0.3,0.4,0.6c0.1,0.3,0.3,0.6,0.4,0.8c0.1,0.2,0.4,0.4,0.6,0.5C78.2,74,78.5,74,79,74c0.6,0,1.1-0.1,1.5-0.4
		c0.4-0.3,0.6-0.6,0.6-1c0-0.3-0.1-0.6-0.3-0.8c-0.2-0.2-0.5-0.4-0.8-0.5s-0.8-0.2-1.3-0.3c-0.7-0.2-1.3-0.4-1.8-0.6
		s-0.9-0.5-1.2-0.9c-0.3-0.4-0.4-0.9-0.4-1.5c0-0.6,0.2-1,0.5-1.5s0.7-0.8,1.3-1c0.6-0.2,1.2-0.3,2-0.3c0.6,0,1.1,0.1,1.6,0.2
		s0.8,0.4,1.1,0.6c0.3,0.3,0.5,0.5,0.6,0.8s0.2,0.5,0.2,0.8c0,0.2-0.1,0.5-0.3,0.7c-0.2,0.2-0.4,0.3-0.6,0.3c-0.2,0-0.4-0.1-0.5-0.2
		s-0.3-0.3-0.4-0.6c-0.2-0.4-0.4-0.7-0.7-0.9c-0.3-0.2-0.7-0.3-1.2-0.3c-0.5,0-0.9,0.1-1.3,0.3s-0.5,0.5-0.5,0.8
		c0,0.2,0.1,0.4,0.2,0.5s0.3,0.3,0.5,0.4s0.4,0.2,0.6,0.2c0.2,0.1,0.5,0.1,1,0.3c0.6,0.1,1.1,0.3,1.5,0.4s0.8,0.4,1.2,0.6
		c0.3,0.2,0.6,0.5,0.8,0.9c0.2,0.3,0.3,0.8,0.3,1.3C83,72.9,82.9,73.5,82.5,74z M88.5,47.7l-14.6,0.1c-0.7,0-1.2-0.5-1.2-1.2
		L72.8,32c0-1.1,1.3-1.6,2.1-0.9l14.4,14.4C90.1,46.4,89.5,47.7,88.5,47.7z"/>
</g>
</svg>
