<?xml version="1.0" encoding="utf-8"?>
<!-- Generator: Adobe Illustrator 25.4.1, SVG Export Plug-In . SVG Version: 6.00 Build 0)  -->
<svg version="1.1" id="Layer_1" xmlns="http://www.w3.org/2000/svg" xmlns:xlink="http://www.w3.org/1999/xlink" x="0px" y="0px"
	 viewBox="0 0 128 128" style="enable-background:new 0 0 128 128;" xml:space="preserve">
<style type="text/css">
	.st0{fill:#8195A6;}
</style>
<g>
	<path class="st0" d="M64,0C28.6,0,0,28.6,0,64s28.6,64,64,64s64-28.7,64-64S99.3,0,64,0z M98.2,97.2c0,5-4,9-9,9H38.9c-5,0-9-4-9-9
		V30.7c0-5,4-9,9-9h39.3l20,20.1V97.2z"/>
	<path class="st0" d="M39.7,55.7c0,1.4,1.1,2.5,2.5,2.5h43.6c1.4,0,2.5-1.1,2.5-2.5s-1.1-2.5-2.5-2.5H42.2
		C40.8,53.2,39.7,54.3,39.7,55.7z"/>
	<path class="st0" d="M85.8,65.7H42.2c-1.4,0-2.5,1.1-2.5,2.5s1.1,2.5,2.5,2.5h43.6c1.4,0,2.5-1.1,2.5-2.5S87.2,65.7,85.8,65.7z"/>
	<path class="st0" d="M85.8,79.2H42.2c-1.4,0-2.5,1.1-2.5,2.5s1.1,2.5,2.5,2.5h43.6c1.4,0,2.5-1.1,2.5-2.5S87.2,79.2,85.8,79.2z"/>
</g>
</svg>
