<?xml version="1.0" encoding="utf-8"?>
<!-- Generator: Adobe Illustrator 25.2.3, SVG Export Plug-In . SVG Version: 6.00 Build 0)  -->
<svg version="1.1" id="Strokes" xmlns="http://www.w3.org/2000/svg" xmlns:xlink="http://www.w3.org/1999/xlink" x="0px" y="0px"
	 viewBox="0 0 1525 445" style="enable-background:new 0 0 1525 445;" xml:space="preserve">
<style type="text/css">
	.st0{fill:#FFFFFF;}
</style>
<g>
	<rect x="173" y="0.7" class="st0" width="26" height="367.3"/>
	<path class="st0" d="M88.2,184C87,182.6,4.9,191.4,0,276c3.3,82.5,83.7,93.2,89,92c14.4,0,75,0,75,0l0-184
		C164,184,102,183.8,88.2,184z"/>
	<path class="st0" d="M283,0.7c-14.4,0-75,0-75,0l0,184c0,0,62,0.2,75.8,0c1.2,1.4,83.3-7.4,88.2-92C368.7,10.2,288.3-0.4,283,0.7z"
		/>
	<path class="st0" d="M504.6,228.5c27.3,1.2,109.5-24.4,110.4-113.4C611.4,17.7,516.3,0,503.6,1.7c-18.2,0-94.7,0-94.7,0l0,226.8
		C408.9,228.5,487.2,228.8,504.6,228.5z M507,71.4c9.5,0.6,39.8,11.3,39.8,43.3c0.7,26.3-22.3,41.3-40.9,43.3
		c-6.2,0.1-32.8,0-32.8,0l0-86.5C473.2,71.4,500.5,71.4,507,71.4z"/>
	<rect x="632" y="69.9" class="st0" width="67" height="158.7"/>
	<path class="st0" d="M645.2,59.4h40.6c7.3,0,13.2-5.9,13.2-13.2v-16c0-7.3-5.9-13.2-13.2-13.2h-40.6c-7.3,0-13.2,5.9-13.2,13.2v16
		C632,53.5,637.9,59.4,645.2,59.4z"/>
	<rect x="898" y="69.9" class="st0" width="67" height="158.7"/>
	<path class="st0" d="M911.2,59.4h40.6c7.3,0,13.2-5.9,13.2-13.2v-16c0-7.3-5.9-13.2-13.2-13.2h-40.6c-7.3,0-13.2,5.9-13.2,13.2v16
		C898,53.5,903.9,59.4,911.2,59.4z"/>
	<rect x="409" y="315.9" class="st0" width="9" height="53.1"/>
	<rect x="450" y="392.1" class="st0" width="9" height="51.9"/>
	<rect x="588.9" y="315.9" class="st0" width="9" height="53.1"/>
	<polygon class="st0" points="533.9,324 551,324 551,369 560,369 560,324 577.9,324 577.9,315.9 533.9,315.9 	"/>
	<polygon class="st0" points="654.1,315.9 610.1,315.9 610.1,324 627.2,324 627.2,369 636.2,369 636.2,324 654.1,324 	"/>
	<polygon class="st0" points="744.6,369 744.6,324 762.5,324 762.5,315.9 718.5,315.9 718.5,324 735.6,324 735.6,369 	"/>
	<polygon class="st0" points="965,324 982.1,324 982.1,369 991.1,369 991.1,324 1009,324 1009,315.9 965,315.9 	"/>
	<polygon class="st0" points="482.9,369 482.9,316 474,316 474,353 442,316 434,316 434,369 443,369 443,332 475,369 	"/>
	<polygon class="st0" points="1222,353 1190,316 1182,316 1182,369 1191,369 1191,332 1223,369 1230.9,369 1230.9,316 1222,316 	"/>
	<polygon class="st0" points="512,392 512,429 479.9,392 472,392 472,444 481,444 481,408 512.2,444 520,444 520,392 	"/>
	<path class="st0" d="M869.2,315.9c-15.6,0-28.2,11.9-28.2,26.5s12.6,26.5,28.2,26.5c15.6,0,28.2-11.9,28.2-26.5
		S884.8,315.9,869.2,315.9z M869.2,361.3c-10.7,0-19.4-8.3-19.4-18.6s8.7-18.6,19.4-18.6c10.7,0,19.4,8.3,19.4,18.6
		S879.9,361.3,869.2,361.3z"/>
	<path class="st0" d="M1271.7,315.9c-15.4,0-27.9,11.9-27.9,26.5s12.5,26.5,27.9,26.5s27.9-11.9,27.9-26.5
		S1287.1,315.9,1271.7,315.9z M1271.6,361.3c-10.6,0-19.1-8.3-19.1-18.6s8.6-18.6,19.1-18.6c10.6,0,19.1,8.3,19.1,18.6
		S1282.2,361.3,1271.6,361.3z"/>
	<path class="st0" d="M1381.5,316.1c-15.4,0-27.9,11.9-27.9,26.5s12.5,26.5,27.9,26.5s27.9-11.9,27.9-26.5
		S1396.9,316.1,1381.5,316.1z M1381.4,361.5c-10.6,0-19.1-8.3-19.1-18.6s8.6-18.6,19.1-18.6c10.6,0,19.1,8.3,19.1,18.6
		S1392,361.5,1381.4,361.5z"/>
	<path class="st0" d="M704.8,391.5c-15.4,0-27.9,11.9-27.9,26.5s12.5,26.5,27.9,26.5s27.9-11.9,27.9-26.5S720.2,391.5,704.8,391.5z
		 M704.8,436.8c-10.6,0-19.1-8.3-19.1-18.6s8.6-18.6,19.1-18.6c10.6,0,19.1,8.3,19.1,18.6S715.3,436.8,704.8,436.8z"/>
	<polygon class="st0" points="789,392 789,444 798,444 820,444 820,436 798,436 798,422 819,422 819,414 798,414 798,400 820,400 
		820,392 798,392 	"/>
	<polygon class="st0" points="804.9,359.9 783,359.9 783,346 803.9,346 803.9,338 783,338 783,325 804,325 804,315.9 783,315.9 
		774,315.9 774,369 783,369 804.9,369 	"/>
	<polygon class="st0" points="1029.3,346 1050.3,346 1050.3,338 1029.3,338 1029.3,325 1050.3,325 1050.3,315.9 1029.3,315.9 
		1020.3,315.9 1020.3,369 1029.3,369 1051.3,369 1051.3,359.9 1029.3,359.9 	"/>
	<path class="st0" d="M789,226c3.6-0.1,19,0,19,0s0,5.9,0,7c0,11.8-20,12-20,12l-50,0l0,54c0,0,27-0.1,62,0
		c40.2,0,74.8-33.8,77.1-71.3c0-6.6,0-161.9,0-161.9s-80,0-88.2,0c-62.6,8.1-71.8,61.4-72,72.2c-0.1,6.1-0.2,10.5,0.2,18.2
		C719.8,181.3,743.1,220.8,789,226z M796.9,118c1.5-0.2,23,0,23,0v48.7H799c0,0-21.4-2.4-22-23.5C775.6,123.2,792.4,118.6,796.9,118
		z"/>
	<path class="st0" d="M1183.9,81c0-52.7-47.1-81-82.3-80.2c-5.6,0.2-114.6,0-114.6,0v227.8h67V160c0,0,52.7,0.1,55.5,0
		C1147.6,155.7,1184.3,127.9,1183.9,81z M1088.1,108c-2.2,0-33.1,0-33.1,0V55.1c0,0,27,0,30.5,0c3.8,0,25.2,5.8,25.5,26.2
		C1111.8,100,1091.4,107.8,1088.1,108z"/>
	<path class="st0" d="M1261.7,59.7c-53.3,1.1-82.4,42.6-83.2,84.3c-0.7,39.7,31.4,85.9,83.8,84.6c54.7-0.4,72.9-44.6,72.9-44.6
		s-60.3-0.3-67.4-0.3c-7-1-17.1-4.4-15.8-22.6c7.4-0.1,84.8,0.1,92.9,0.1C1349.3,101.4,1313.9,59.7,1261.7,59.7z M1292.2,125.2
		L1251,125c0,0-1.4-24.5,20.6-24.5C1292.8,100.6,1292.2,125.2,1292.2,125.2z"/>
	<path class="st0" d="M1424.8,128.5c0,0-0.8-10.5,15.5-10.7c16.3-0.2,15.7,12.2,15.7,12.2l0.2,98.6h67.5c0,0,0-110.6,0-118.5
		c-6.3-53.7-65.5-50.5-65.5-50.5H1357v169h67.5L1424.8,128.5z"/>
	<path class="st0" d="M514,338.3c-3.3-1.2-10.2-5.5-10-9.1c0.1-3,2.1-4.4,5.4-5.3c1.7,0.1,4.6,0,4.6,0c2.3,0.2,6,2.6,10,6.1v-10
		c0,0-4.7-4-9-4.2c-3.7-0.1-8.5,0.1-8.5,0.1s-7.8,1.1-10.6,9.2c-0.4,1.8-0.2,7,0.2,8.9c0.3,1.2,1.6,6.4,10.8,10.5
		c8.6,4.4,9.9,8.1,10.2,10.8c-0.1,1.2,0.3,5.4-6.3,5.6c-7.5,0.3-11.8-4.7-14.8-8c0,4.5,0,11.9,0,11.9s5.8,4.3,9.5,4
		c2.6,0,10.2,0,10.2,0s9.8-3.5,10.3-13.8C526.1,344.5,517.8,340.4,514,338.3z"/>
	<path class="st0" d="M427.2,413.9c-3.3-1.2-10.2-5.5-10-9.1c0.1-3,2.1-4.4,5.4-5.3c1.7,0.1,4.6,0,4.6,0c2.3,0.2,6,2.6,10,6.1v-10
		c0,0-4.7-4-9-4.2c-3.7-0.1-8.5,0.1-8.5,0.1s-7.8,1.1-10.6,9.2c-0.4,1.8-0.2,7,0.2,8.9c0.3,1.2,1.6,6.4,10.8,10.5
		c8.6,4.4,9.9,8.1,10.2,10.8c-0.1,1.2,0.3,5.4-6.3,5.6c-7.5,0.3-11.8-4.7-14.8-8c0,4.5,0,11.9,0,11.9s5.8,4.3,9.5,4
		c2.6,0,10.2,0,10.2,0s9.8-3.5,10.3-13.8C439.3,420.1,431,416,427.2,413.9z"/>
	<path class="st0" d="M685.9,361.1c-13.8-0.8-13.8-11.7-13.8-11.7v-33.5l-9,0c0,0,0,31.1,0,33.9c0,2,0,19.5,23.1,19.5
		c23.1,0,23.1-18.6,23.1-18.6v-34.8H700V350C700,350,699.7,360.6,685.9,361.1z"/>
	<polygon class="st0" points="911,369 920,369 920,345 940,345 940,337 920,337 920,325.1 940,325.1 940,315.9 911,315.9 	"/>
	<polygon class="st0" points="1157,316 1157,338 1131,338 1131,316 1122,316 1122,369 1131,369 1131,347 1157,347 1157,369 
		1166,369 1166,316 	"/>
	<polygon class="st0" points="1322.1,315.9 1313,315.9 1313,369.2 1345,369.2 1345,360 1322,360 	"/>
	<path class="st0" d="M1514.5,316.1l-12.4,15.6c-0.4,0.5-1.2,0.5-1.6,0l-11.9-15.6h-11l19.5,25.7l0,27.1h9l0.1-27.1l18.7-25.7
		H1514.5z"/>
	<path class="st0" d="M1450,350h10l0.1,8.6c0,0-1.2,2.3-11,2.5c-9.9,0.2-19.5-6.9-19-19c0.4-12.8,9.9-17.5,18.9-18.2
		c9.8-0.3,16.2,5,16.2,5l3,0l0-8.8c0,0-7.3-4.7-19.4-4.2c-13.8,0-27.5,7.9-27.6,26.5c-0.8,16.7,12.9,26.4,28.4,26.5
		c14.8,0,19.5-4.1,19.5-4.1V342l-19,0L1450,350z"/>
	<path class="st0" d="M559,426l9,0l0.1,7.5c0,0-1.2,2.3-11,2.5s-19.2-6-18.7-18c1-12.6,8.5-18.1,18.4-19c11.2-0.2,16.4,4.9,16.4,4.9
		l3,0l0-8.8c0,0-7.3-4.7-19.4-4.2c-13.8,0-26.3,10.3-26.7,26.5c-0.5,17.4,12,26.4,27.5,26.5c14.8,0,19.5-4.1,19.5-4.1V417l-17.9,0
		L559,426z"/>
	<path class="st0" d="M604.3,390.9L581.9,444h9.6l6.4-14.9h19.8l7.2,14.9h9.3l-23.4-53.1H604.3z M601.1,421l6.3-16l7.2,15.9
		L601.1,421z"/>
	<path class="st0" d="M1061.2,342.6c0,19.4,17.8,26.2,28.2,26.4c13.6-0.2,17-3.5,18.5-4.6c0-1.2,0-9.2,0-9.2
		c-3.5,2.7-8.5,5.3-17.8,5.6c-11-0.5-20.2-7.8-20-18.3c-0.1-9.8,8.6-18.1,20-18.1c10.9,0.4,17.8,5.7,17.8,5.7v-10
		c0,0-7.4-4.1-18.2-4S1061.4,323,1061.2,342.6z"/>
	<path class="st0" d="M662.9,392c-4.8,0-13.9,0-13.9,0h-9v52h9v-22l12.1,0c8.5-1.4,11.6-7.9,12-10c0.1-3,0.1-8.8,0-10.9
		C672.1,397.8,668.1,392.7,662.9,392z M659.1,414c-2.3,0-10,0-10,0v-14h10c0,0,5,1.2,5,6.8C664,410.7,662,413,659.1,414z"/>
	<path class="st0" d="M765.2,419.9c-0.6-0.7,0.3-1,0.7-1.4c6.5-3.9,6.4-6.8,6.6-12.2c-0.3-8.3-5.1-13.5-12.1-14.3
		c-4.6,0-19.3,0-19.3,0v52h9v-22c0,0,3.5-0.1,4.8-0.1c5.2,3.8,11.5,13.3,16.2,22c1.6,0,10.6,0,11.1,0
		C775.8,432.9,769.9,422.9,765.2,419.9z M758,413.9h-7.9V400h8c0,0,4.9,0.8,4.9,7C763,411.9,758,413.9,758,413.9z"/>
</g>
</svg>
