<?xml version="1.0" encoding="utf-8"?>
<!-- Generator: Adobe Illustrator 25.2.3, SVG Export Plug-In . SVG Version: 6.00 Build 0)  -->
<svg version="1.1"
	 id="svg1307" inkscape:version="0.44" sodipodi:docbase="/home/luca/Artwork/blackwhite-icon-theme/scalable/emblems" sodipodi:docname="emblem-mail.svg" xmlns:cc="http://web.resource.org/cc/" xmlns:dc="http://purl.org/dc/elements/1.1/" xmlns:inkscape="http://www.inkscape.org/namespaces/inkscape" xmlns:rdf="http://www.w3.org/1999/02/22-rdf-syntax-ns#" xmlns:sodipodi="http://sodipodi.sourceforge.net/DTD/sodipodi-0.dtd" xmlns:svg="http://www.w3.org/2000/svg"
	 xmlns="http://www.w3.org/2000/svg" xmlns:xlink="http://www.w3.org/1999/xlink" x="0px" y="0px" viewBox="0 0 48 48"
	 style="enable-background:new 0 0 48 48;" xml:space="preserve">
<style type="text/css">
	.st0{fill:#FFFFFF;}
</style>
<sodipodi:namedview  bordercolor="#666666" borderopacity="1.0" id="base" inkscape:current-layer="layer1" inkscape:cx="24" inkscape:cy="24" inkscape:document-units="px" inkscape:grid-bbox="true" inkscape:pageopacity="0.0" inkscape:pageshadow="2" inkscape:window-height="944" inkscape:window-width="1270" inkscape:window-x="0" inkscape:window-y="26" inkscape:zoom="15.1875" pagecolor="#ffffff" showgrid="true">
	</sodipodi:namedview>
<g>
	<path class="st0" d="M43,0H5C2.2,0,0,2.8,0,6.3v35.3C0,45.2,2.2,48,5,48h38c2.8,0,5-2.8,5-6.3V6.3C48,2.8,45.8,0,43,0z M43,35
		c0,2.2-1.8,4-4,4H9c-2.2,0-4-1.8-4-4V13c0-2.2,1.8-4,4-4H39c2.2,0,4,1.8,4,4V35z"/>
	<path class="st0" d="M22,27L9.3,14.5v19.8h29.3V14.2L25,27C23.9,28.2,23.1,28.2,22,27z"/>
</g>
</svg>
