<?xml version="1.0" encoding="utf-8"?>
<!-- Generator: Adobe Illustrator 26.0.1, SVG Export Plug-In . SVG Version: 6.00 Build 0)  -->
<svg version="1.1" id="Layer_1" xmlns="http://www.w3.org/2000/svg" xmlns:xlink="http://www.w3.org/1999/xlink" x="0px" y="0px"
	 viewBox="0 0 34.7 32" style="enable-background:new 0 0 34.7 32;" xml:space="preserve">
<style type="text/css">
	.st0{fill:#E24329;}
	.st1{fill:#FC6D26;}
	.st2{fill:#FCA326;}
</style>
<polygon class="st0" points="17.4,32 17.4,32 23.8,12.3 11,12.3 "/>
<polygon class="st1" points="17.4,32 11,12.3 2,12.3 "/>
<path class="st2" d="M2,12.3L2,12.3l-1.9,6c-0.2,0.5,0,1.1,0.5,1.5L17.4,32L2,12.3z"/>
<path class="st0" d="M2,12.3h9L7.1,0.5C7,0.1,6.6-0.1,6.3,0C6.1,0.1,5.9,0.3,5.9,0.5L2,12.3z"/>
<polygon class="st1" points="17.4,32 23.8,12.3 32.7,12.3 "/>
<path class="st2" d="M32.7,12.3L32.7,12.3l1.9,6c0.2,0.5,0,1.1-0.5,1.5L17.4,32L32.7,12.3z"/>
<path class="st0" d="M32.7,12.3h-9l3.9-11.9c0.1-0.3,0.5-0.5,0.8-0.4c0.2,0.1,0.4,0.2,0.4,0.4C28.9,0.5,32.7,12.3,32.7,12.3z"/>
</svg>
