<?xml version="1.0" encoding="utf-8"?>
<!-- Generator: Adobe Illustrator 26.0.1, SVG Export Plug-In . SVG Version: 6.00 Build 0)  -->
<svg version="1.1" id="Layer_1" xmlns="http://www.w3.org/2000/svg" xmlns:xlink="http://www.w3.org/1999/xlink" x="0px" y="0px"
	 viewBox="0 0 527.7 512" style="enable-background:new 0 0 527.7 512;" xml:space="preserve">
<style type="text/css">
	.st0{fill:#271302;}
	.st1{fill:#FF7C01;}
</style>
<path class="st0" d="M117.3,0h293c64.8,0,117.3,52.5,117.3,117.3v277.3c0,64.8-52.5,117.3-117.3,117.3h-293
	C52.5,512,0,459.5,0,394.7V117.3C0,52.5,52.5,0,117.3,0z"/>
<path class="st0" d="M117.3,24.4h293c51.3,0,92.9,41.6,92.9,92.9v277.3c0,51.3-41.6,92.9-92.9,92.9h-293
	c-51.3,0-92.9-41.6-92.9-92.9V117.3C24.4,66,66,24.4,117.3,24.4z"/>
<path class="st1" d="M184.9,299L170,344.9c-0.4,1.5-1.8,2.5-3.4,2.4h-36c-2.2,0-2.8-1.2-2.4-3.1l62.1-179c1.2-3.4,2.4-7.1,3.1-18.9
	c-0.1-1.1,0.8-2.1,1.9-2.2h49.6c1.6,0,2.2,0.3,2.4,1.9l70.4,198.6c0.6,1.6,0.3,2.8-1.6,2.8h-40.3c-1.5,0.2-3-0.7-3.4-2.2l-15.9-46.2
	L184.9,299z M245.1,260.2c-6.2-20.5-18.6-58-24.5-80.1h-0.3c-5,20.8-16.1,55-24.2,80.1H245.1z"/>
<path class="st1" d="M336.3,152.5c0-14,10.2-23.9,24.2-23.9c14.9,0,23.9,9.9,23.9,23.9c0,14.6-9.6,24.2-24.2,24.2
	S336.3,167.1,336.3,152.5z M338.5,195.6c0-1.6,0.6-2.4,2.4-2.4h38.2c1.9,0,2.4,0.6,2.4,2.4v148.9c0,1.9-0.3,2.8-2.8,2.8h-37.2
	c-2.2,0-3.1-0.9-3.1-2.8V195.6z"/>
</svg>
