<?xml version="1.0" encoding="utf-8"?>
<!-- Generator: Adobe Illustrator 25.2.3, SVG Export Plug-In . SVG Version: 6.00 Build 0)  -->
<svg version="1.1" id="strokes" xmlns="http://www.w3.org/2000/svg" xmlns:xlink="http://www.w3.org/1999/xlink" x="0px" y="0px"
	 viewBox="0 0 128 128" style="enable-background:new 0 0 128 128;" xml:space="preserve">
<style type="text/css">
	.st0{fill:none;}
	.st1{fill:#8195A6;}	<!-- Icon -->
	.st2{fill:#556573;}	<!-- Rim  -->
</style>
<circle class="st0" cx="64" cy="64" r="60.6"/>
<path class="st1" d="M22.2,49.9c0.4-0.2,3.5-1,8-2c1,0,1.6,0,1.6,0s-0.3,0.7-1.7,1.6c-1.2,0.5-6.8,1.7-7.6,1.4
	C21.7,50.6,22.2,49.9,22.2,49.9z"/>
<path class="st1" d="M68.4,40.8c0.2-0.2,3.4,5.4,4.7,8.6c-0.9,0.3-2.7,0.8-3.8,1.6C69.2,43.3,68,40.7,68.4,40.8z"/>
<path class="st1" d="M107,64.1c-3-1.6-19.8-7.8-21.1-8.6c-0.7-2.3-3.2-14.1-6.2-20.2C75.6,30.9,65.2,25.2,62,24.6
	c-4.2-0.6-14.2-1-14.2-1s0.5-1.5-0.9-2.6c-4.1-2.8-16,1.1-16.7,5.6c-0.2,1.5,0.1,2.2,1.1,2.9c-2.7,2.3-12.9,12-14.4,24.1
	c-0.7,9.4,4.3,22.6,5.6,24.8c2,1.4,19.4,6.7,21,7.1c2.8,1.4,6.4,3,7.5,3.3c0.1,0.6,0.2,0.8,0.2,1.2c-1.6-0.4-21.4-6.1-25.6-8.5
	c3,8.4,3.7,9.1,5.9,12.5c5.7,8.5,22.4,16.8,39.6,12.4c4.4-1.5,17.8-13.6,17.6-30.8c0.8-0.5,2.1-1.1,3.3-1.2c5,1.3,12.5,4.1,16.7,4.9
	c0.6,0.1,1.4,0.3,2-0.7C112.2,74,110.1,66.6,107,64.1z M98.7,68.1c-0.5-0.4-19.8-8.3-20-8.4c0.2-0.2,1-0.4,1-0.4s18.5,6.7,19.9,8.3
	c0.1,0.2,0.5,0.5,0.5,1.1c-0.4-0.1-1.1,0.1-1.1,0.1S99,68.4,98.7,68.1z M74.1,39.3c0.2-0.2,2.9,1,4.4,1.5c0.3,0.3,0.6,0.4,1,1.1
	c0.7,1.6,1.5,6.9,1.5,6.9s0.3,0.1,0.6,0.2c0.7,0.5,0.8,3.3,0.9,6.4c-0.1,0.6-0.4,0.8-0.6,0.8c-1.7-0.1-2.4-0.1-4.1-0.1
	c0-0.5,0.3-3.4-0.5-7.6C76.4,45.2,74.1,39.7,74.1,39.3z M65.5,41.1c0-0.5,0.3-0.9,0.4-1.1c0.7-0.6,2.6-1.1,3.4-1.1
	c0.4,0.2,1.1,0.9,1.4,1.2c0.7,1.1,4.3,7.5,4.6,9c0.7,2,1.8,6.2,1.8,6.9c-0.5,0.1-1.6,0.4-1.9,0.6c-0.5-3.4-1.1-4.8-1.5-6.1
	c-1.9,0.5-3.2,1.1-4.6,1.9c-0.2,1-1.1,7.5-1.1,8.4c-1.1,0.7-2.2,1.4-3.5,2.5c0.2-2.5,1.7-9.5,1.7-13.6
	C66.3,47.2,65.5,41.6,65.5,41.1z M64,67.1c0.5,0.3,20.2,8.7,20.2,8.7s-0.4,0.2-0.7,0.5c-0.8-0.2-19.8-7.8-20.8-8.3
	C63,67.6,63.6,67.3,64,67.1z M24.2,76.3c-0.4-1.1-0.9-2.4-0.9-2.4s8.3,3.4,13.4,3.4c-1.1-0.4-3.6-1.5-3.6-1.5s-9.4-3.6-10.8-4.8
	c-0.8-2.6-2.6-8.7-3-13.9c-0.1-3.1-0.1-6.5,2-10.5c7.5-11.6,14.9-16.8,19.1-16c-1.5,2.4-3.5,7.4-4.1,17.1c0.2,10,2.7,26.1,4.3,31.1
	c0.9,1.9,1.9,3.8,1.9,3.8S26.7,77.6,24.2,76.3z M34.4,27.3c-2.5-0.4-1.9-1.1-1.7-1.6C33,25.3,36,22.3,43.4,22c1.8,0,2.5,0.8,1.8,1.9
	C44,25,40.8,27.2,34.4,27.3z M45.7,50.8c2.5-2,10.1-6.1,12.1-7c0.6,0.3,1.4,1,1.7,1.2c0.3,0.5,0.9,5,0.9,5s-4,2.3-4,2.1
	S56,46.7,56,46.7s-5.9,3.2-6.8,3.9c-0.3,2.5,0.2,8.9,0.2,10.8c0.2,2.1,1.4,10,1.4,10l7.6-5.4l-0.6-8.8c0,0-3.9,2.4-5.5,3.2
	c-0.1-0.8-0.1-1.5,0.1-2c0.7-0.6,7.3-4.3,7.6-4.3c0.4,0.2,1.4,1.1,1.9,1.8c0.2,0.6,0.6,8,0.6,9.1C62.2,65.4,51,73.8,50,74.4
	c-1.1,0.6-3.3-2.1-3.3-2.1s-1.1-5.2-1.2-8.7C45.2,59.9,45.4,52.2,45.7,50.8z M71,93.6c-1.1,0.9-7.2,3.3-10.5,4.2
	c-0.8,0.2-2.3,0.1-2.3,0.1s-3.8-0.7-4.6-2.6s-0.9-4.9-0.9-5.7c1.6,0.5,5.7,1.9,9.4,2.2c3.8,0.4,4.4,0.3,6,0.1
	c1.1-0.2,3.2-0.9,4.1-1.2C72,91.3,71.5,92.9,71,93.6z M73.2,86.2c-2.6,2.1-4.4,2.6-6.4,2.6c-10.9,0.3-19.6-4.9-20.5-5.6
	c-0.2-2.7,12.8-13.7,15.4-14.9c3,1.4,18.9,7.6,20.6,8.5C79.6,79.3,76,83.8,73.2,86.2z M87.2,84.7c-0.2,0.5-1,1.9-1.8,2.5
	c-1.2,0.7-4.9,2.4-6.4,2.9c-2.3,0.3-2.6-0.6-2.6-0.6s-0.4-1-0.3-2.4c0,0,4.1-5.7,11.3-10.4c0.3-0.1,0.4,0,0.5,0
	C88.4,78.6,87.4,84.2,87.2,84.7z M72,62.3c0,0,3.5-2,5.8-2.4c3.4,1.1,17.7,7.1,20,8.1c0.4,0.2,0.5,0.6,0.4,0.9
	C97,69,94.1,70,92.6,70.4C88.4,69.3,74.1,63.2,72,62.3z M108.6,76.9c-3.7-0.4-12.4-3.7-11.9-4.5s3.8-1.8,5.5-1.3
	c2.7,0.5,4.1,2.3,5.1,3.4c-0.3-1.5-1.2-3.3-3.4-4.9c0.8-2.7-0.9-3.6-0.9-3.6l-15.4-7c0,0,0.3-0.1,0.7,0c1.5,0.6,12.8,4.7,16.6,6.4
	C110.6,71.8,109,76,108.6,76.9z"/>
<path class="st1" d="M76,41.2c0,0,1.9,5.4,2.5,7.4c0.4,2.3,0.6,5.7,0.5,6.4c0.9,0,1.7,0,2.1,0.2c0.3-1.3,0-4.9-0.3-5.2
	c-0.4-0.2-0.8-0.3-2-0.6c-0.1-0.6-0.2-1.1-0.3-1.3c0.5,0.2,0.9,0.3,1.2,0.4c0.1-1-1.4-6.1-1.8-6.5C77.4,41.7,76,41.2,76,41.2z"/>
<g>
	<path class="st2" d="M64,0C28.7,0,0,28.7,0,64s28.7,64,64,64s64-28.7,64-64S99.3,0,64,0z M64,124.6C30.5,124.6,3.4,97.4,3.4,64
		S30.5,3.3,64,3.3s60.6,27.1,60.6,60.6S97.5,124.6,64,124.6z"/>
</g>
</svg>
