<?xml version="1.0" encoding="utf-8"?>
<!-- Generator: Adobe Illustrator 26.0.1, SVG Export Plug-In . SVG Version: 6.00 Build 0)  -->
<svg version="1.1" id="Layer_1" xmlns="http://www.w3.org/2000/svg" xmlns:xlink="http://www.w3.org/1999/xlink" x="0px" y="0px"
	 viewBox="0 0 512 223.7" style="enable-background:new 0 0 512 223.7;" xml:space="preserve">
<style type="text/css">
	.st0{fill:#5586A4;}
</style>
<path class="st0" d="M391.7,107.5h39.9v50.3h-13.3l-2.1-10.6c-14.6,21.9-71,18.5-72.9-35.7c-0.4-61.3,80.5-63.9,86.9-16.3h-20
	C406.3,78.6,388,76.5,377,83.1c-9.6,5.7-13.2,17.7-12.8,28.6c0.1,19.1,10.1,33.1,29.4,30.9c9.4-1.1,17.9-6.1,19.1-19.8h-21.1v-15.3
	H391.7z M465.6,140.5V64.8h-20.9v93H512v-17.3H465.6z M144.8,135.6c-9.6,23.2-40.3,30.3-61.8,19c53,45,184.5,66,283.8,14.7
	C239.9,273.1-1.2,213.9,0,111.7C1.2,3.7,252.2-45.9,367.2,54.4c-86-48.6-225.9-34.1-282.7,12.4C116.4,50.3,168.3,79.1,144.8,135.6z
	 M75.8,131.4c11.9,26,47.9,23.2,57.9-0.6c11-26.2-0.7-57.1-28.9-57.8C77.5,72.3,63.2,105.8,75.8,131.4z M334.4,157.8v-39
	c0.6-12.3-5.5-19-14.2-20.9c-9-2-21.2-0.2-26.7,10v-9.4H284v59.3h10v-33.4c0-11.6,8.7-21.5,23.1-17.2c4,1.2,6.9,4.2,7.2,10.6v40.1
	L334.4,157.8L334.4,157.8z M169,98.5v8c3.6-9.8,28.6-14.9,40.6-0.1c4.3,5.3,6.7,12.8,6.7,21.7c0,4.7-1.1,16.2-8.1,23.5
	c-8.5,8.9-29.6,11.4-39.2-1.8v30.6h-10V98.5H169z M178.3,148.1c11.9,5.8,27.5,2.8,28.2-19.8c0.6-18.3-15.7-27.7-28.1-19.7
	C165.8,116.7,166.1,139.2,178.3,148.1z M232,131.1c-0.3,5.8,1.8,11.6,6.5,15.5c7.8,6.5,25.6,5.9,28-7.7h9.9
	c-3.5,22-29.8,23.8-42.9,15.4c-9.2-6-11.7-16.8-12.2-26.4c0.3-41.2,57.9-42.1,56,3.2H232z M232,122.5h34.7
	C263.9,98.8,233.4,101.3,232,122.5z"/>
</svg>
