<?xml version="1.0" encoding="utf-8"?>
<!-- Generator: Adobe Illustrator 26.0.1, SVG Export Plug-In . SVG Version: 6.00 Build 0)  -->
<svg version="1.1" id="Layer_1" xmlns="http://www.w3.org/2000/svg" xmlns:xlink="http://www.w3.org/1999/xlink" x="0px" y="0px"
	 viewBox="0 0 527.7 512" style="enable-background:new 0 0 527.7 512;" xml:space="preserve">
<style type="text/css">
	.st0{fill:#001D23;}
	.st1{fill:#01C8FE;}
</style>
<path class="st0" d="M117.3,0h293c64.8,0,117.3,52.5,117.3,117.3v277.3c0,64.8-52.5,117.3-117.3,117.3h-293
	C52.5,512,0,459.5,0,394.7V117.3C0,52.5,52.5,0,117.3,0z"/>
<path class="st0" d="M117.3,24.4h293c51.3,0,92.9,41.6,92.9,92.9v277.3c0,51.3-41.6,92.9-92.9,92.9h-293
	c-51.3,0-92.9-41.6-92.9-92.9V117.3C24.4,66,66,24.4,117.3,24.4z"/>
<path class="st1" d="M131.8,146.9c0-1.9,0.3-2.4,1.9-2.4c12.7-0.3,37.2-0.9,60.8-0.9c62.7,0,84.4,34.8,84.4,68.6
	c0,50.3-38.8,71.7-86.6,71.7h-17.7v61.1c0,1.6-0.6,2.4-2.4,2.4H134c-1.6,0-2.2-0.9-2.2-2.4V146.9z M174.7,245.6
	c5.3,0.3,8.7,0.3,17.4,0.3c24.5,0,44.1-7.5,44.1-32.9c0-19.5-13.3-32-40.3-32c-9.9,0-18.3,0.3-21.1,0.6L174.7,245.6z"/>
<path class="st1" d="M358.6,224.5c-14.6,0-19.2,5.3-19.2,10.6c0,5.3,4,9.3,22,16.1c37.5,13.7,49.3,28.2,49.3,50.3
	c0,29.5-23,49-63.9,49c-18.9,0-35.4-3.4-45-8.7c-1.3-0.6-2.2-1.9-2.2-3.4v-33.5c0-1.9,1.2-2.8,2.4-1.9c14.3,9,31.6,12.4,45.6,12.4
	c14.6,0,21.1-4,21.1-10.5c0-5.9-5.3-10.2-23.6-17.1c-35.1-13-46.5-27.9-46.5-50.3c0-24.2,19.5-47.5,60.5-47.5
	c18.3,0,32.6,2.4,40.3,6.2c1.5,0.8,2.4,2.4,2.2,4v31c0,1.9-1.2,3.1-3.1,2.2C388.4,228.2,372.6,224.5,358.6,224.5z"/>
</svg>
