<?xml version="1.0" encoding="utf-8"?>
<!-- Generator: Adobe Illustrator 26.0.1, SVG Export Plug-In . SVG Version: 6.00 Build 0)  -->
<svg version="1.1" id="Layer_1" xmlns="http://www.w3.org/2000/svg" xmlns:xlink="http://www.w3.org/1999/xlink" x="0px" y="0px"
	 viewBox="0 0 143.3 128" style="enable-background:new 0 0 143.3 128;" xml:space="preserve">
<style type="text/css">
	.st0{fill:#61DAFB;}
</style>
<g>
	<circle class="st0" cx="71.7" cy="64" r="13.1"/>
	<path class="st0" d="M121.2,42.5c-2.5-0.9-5.2-1.8-7.9-2.6c0.7-2.7,1.3-5.5,1.7-8.1c2.4-15.1-0.2-25.8-7.6-29.9
		c-2.2-1.3-4.6-1.8-7.3-1.8c-8,0-18.2,6-28.5,15.9C61.4,6,51.2,0,43.2,0c-2.7,0-5.2,0.6-7.3,1.8c-7.3,4.2-10,14.9-7.6,29.9
		c0.5,2.6,1,5.4,1.7,8.1c-2.7,0.8-5.4,1.6-7.9,2.6C7.8,48,0,55.5,0,64s7.9,16,22.1,21.5c2.5,0.9,5.2,1.8,7.9,2.6
		c-0.7,2.7-1.3,5.5-1.7,8.1c-2.4,15.1,0.2,25.8,7.6,29.9c2.2,1.3,4.6,1.8,7.3,1.8c8.1,0,18.3-6,28.5-15.9C82,122,92.2,128,100.2,128
		c2.7,0,5.2-0.6,7.3-1.8c7.3-4.2,10-14.9,7.6-29.9c-0.5-2.6-1-5.4-1.7-8.1c2.7-0.8,5.4-1.6,7.9-2.6c14.3-5.5,22.1-13.1,22.1-21.5
		S135.6,48,121.2,42.5z M104.3,7.6c4.7,2.7,6.3,11.2,4.4,23.2c-0.3,2.4-0.9,4.9-1.6,7.6c-6-1.4-12.3-2.3-18.9-2.9
		c-3.9-5.5-7.9-10.4-11.9-14.9c8.5-8.4,17.1-14.1,24-14.1C101.8,6.5,103.2,6.9,104.3,7.6z M91.5,75.4c-2.1,3.7-4.5,7.3-7,11
		c-4.2,0.3-8.5,0.5-12.8,0.5c-4.5,0-8.7-0.1-12.8-0.5c-2.5-3.7-4.8-7.3-6.9-11c-2.2-3.8-4.2-7.7-6.1-11.4c1.8-3.8,3.9-7.7,6.1-11.4
		c2.1-3.7,4.5-7.3,7-11c4.2-0.3,8.5-0.5,12.8-0.5c4.5,0,8.7,0.1,12.8,0.5c2.5,3.7,4.8,7.3,6.9,11c2.2,3.8,4.2,7.7,6.1,11.4
		C95.6,67.8,93.7,71.6,91.5,75.4z M101,71.7c1.7,4,3.1,7.9,4.4,11.8c-3.9,0.9-8,1.6-12.4,2.2c1.4-2.2,2.9-4.5,4.1-6.9
		C98.5,76.4,99.7,74,101,71.7z M71.7,102.7c-2.7-3-5.4-6.2-7.9-9.5c2.6,0.1,5.3,0.2,7.9,0.2s5.3-0.1,7.9-0.2
		C77.1,96.5,74.4,99.7,71.7,102.7z M50.4,85.5C46,85,41.9,84.3,38,83.3c1.3-3.8,2.6-7.8,4.4-11.8c1.3,2.3,2.5,4.7,3.9,7
		C47.6,81.1,49,83.2,50.4,85.5z M42.4,56.3c-1.7-4-3.1-7.9-4.4-11.8c3.9-0.9,8-1.6,12.4-2.2c-1.4,2.2-2.9,4.5-4.1,6.9
		C44.9,51.6,43.6,54,42.4,56.3z M71.7,25.3c2.7,3,5.4,6.2,7.9,9.5c-2.6-0.1-5.3-0.2-7.9-0.2c-2.6,0-5.3,0.1-7.9,0.2
		C66.3,31.5,68.9,28.3,71.7,25.3z M97.1,49.3L93,42.5c4.4,0.6,8.5,1.3,12.4,2.2c-1.3,3.8-2.6,7.8-4.4,11.8
		C99.7,54,98.5,51.6,97.1,49.3z M34.7,30.8c-1.9-12-0.3-20.5,4.4-23.2c1.1-0.7,2.5-1,4-1c6.9,0,15.5,5.6,24,14.1
		c-4,4.4-8,9.4-11.9,14.9c-6.6,0.6-12.9,1.6-18.9,2.9C35.6,35.7,35.1,33.2,34.7,30.8z M6.4,64c0-5.4,6.5-11.1,18-15.3
		c2.3-0.9,4.8-1.7,7.3-2.4c1.8,5.7,4.1,11.8,6.9,17.9c-2.7,6.1-5.2,12-6.9,17.7C15.9,77.3,6.4,70.4,6.4,64z M39,120.4
		c-4.7-2.7-6.3-11.2-4.4-23.2c0.3-2.4,0.9-4.9,1.6-7.6c6,1.4,12.3,2.3,18.9,2.9c3.9,5.5,7.9,10.4,11.9,14.9
		c-8.5,8.4-17.1,14.1-24,14.1C41.6,121.5,40.2,121.1,39,120.4z M108.7,97.2c1.9,12,0.3,20.5-4.4,23.2c-1.1,0.7-2.5,1-4,1
		c-6.9,0-15.5-5.6-24-14.1c4-4.4,8-9.4,11.9-14.9c6.6-0.6,12.9-1.6,18.9-2.9C107.7,92.3,108.2,94.8,108.7,97.2z M119,79.3
		c-2.3,0.9-4.8,1.7-7.3,2.4c-1.8-5.7-4.1-11.8-6.9-17.9c2.7-6.1,5.2-12,6.9-17.7c15.8,4.6,25.3,11.4,25.3,17.9
		C136.9,69.4,130.3,75.1,119,79.3z"/>
</g>
</svg>
