<?xml version="1.0" encoding="utf-8"?>
<!-- Generator: Adobe Illustrator 25.2.3, SVG Export Plug-In . SVG Version: 6.00 Build 0)  -->
<svg version="1.1" id="Layer_1" xmlns="http://www.w3.org/2000/svg" xmlns:xlink="http://www.w3.org/1999/xlink" x="0px" y="0px"
	 viewBox="0 0 294 90" style="enable-background:new 0 0 294 90;" xml:space="preserve">
<style type="text/css">
	.st0{fill:#FFFFFF;}
</style>
<g>
	<path class="st0" d="M44.4,0.9C21.1,0.9,2.1,18.9,0.3,41.6L24,51.4c2-1.4,4.4-2.2,7-2.2c0.2,0,0.5,0,0.7,0L42.3,34
		c0-0.1,0-0.1,0-0.2c0-9.2,7.5-16.7,16.7-16.7c9.2,0,16.7,7.5,16.7,16.7S68.2,50.5,59,50.5c-0.1,0-0.3,0-0.4,0l-15,10.7
		c0,0.2,0,0.4,0,0.6c0,6.9-5.6,12.5-12.5,12.5c-6.1,0-11.1-4.3-12.3-10.1l-17-7c5.2,18.6,22.3,32.2,42.6,32.2
		c24.4,0,44.2-19.8,44.2-44.2C88.6,20.7,68.8,0.9,44.4,0.9"/>
	<path class="st0" d="M28,68.1l-5.4-2.2c1,2,2.6,3.7,4.8,4.6c4.8,2,10.3-0.3,12.3-5.1c1-2.3,1-4.9,0-7.2c-1-2.3-2.8-4.1-5.1-5.1
		c-2.3-1-4.8-0.9-6.9-0.1l5.6,2.3c3.5,1.5,5.2,5.5,3.7,9C35.6,67.9,31.5,69.5,28,68.1"/>
	<path class="st0" d="M70.1,33.8c0-6.1-5-11.1-11.1-11.1c-6.1,0-11.1,5-11.1,11.1c0,6.1,5,11.1,11.1,11.1
		C65.1,44.9,70.1,39.9,70.1,33.8 M50.6,33.8c0-4.6,3.7-8.4,8.4-8.4s8.4,3.7,8.4,8.4s-3.7,8.3-8.4,8.3S50.6,38.4,50.6,33.8"/>
	<path class="st0" d="M135.9,31.2l-3,5.2c-2.3-1.6-5.4-2.6-8.1-2.6c-3.1,0-5,1.3-5,3.6c0,2.8,3.4,3.4,8.4,5.2
		c5.4,1.9,8.5,4.2,8.5,9.1c0,6.8-5.3,10.6-13,10.6c-3.7,0-8.3-1-11.7-3.1l2.2-5.8c2.8,1.5,6.2,2.4,9.2,2.4c4.1,0,6-1.5,6-3.7
		c0-2.5-2.9-3.3-7.7-4.9c-5.4-1.8-9.1-4.2-9.1-9.7c0-6.2,5-9.8,12.1-9.8C129.6,27.9,133.6,29.5,135.9,31.2"/>
	<polygon class="st0" points="159,34.5 159,61.8 152,61.8 152,34.5 141.9,34.5 141.9,28.5 169.1,28.5 169.1,34.5 	"/>
	<polygon class="st0" points="183.8,34.5 183.8,42 197.2,42 197.2,48 183.8,48 183.8,55.8 199.3,55.8 199.3,61.8 176.9,61.8 
		176.9,28.5 199.3,28.5 199.3,34.5 	"/>
	<path class="st0" d="M214.9,55.4l-2.2,6.5h-7.3l12.5-33.3h7l12.8,33.3h-7.6l-2.3-6.5L214.9,55.4L214.9,55.4z M221.4,36.5l-4.6,13.3
		h9.2L221.4,36.5z"/>
	<polygon class="st0" points="273.6,41.4 264.5,60.9 260.5,60.9 251.5,41.6 251.5,61.8 244.9,61.8 244.9,28.5 251.5,28.5 
		262.7,52.6 273.5,28.5 280.3,28.5 280.3,61.8 273.6,61.8 	"/>
	<path class="st0" d="M293.7,32.7c0,2.9-2.1,4.6-4.6,4.6c-2.5,0-4.6-1.8-4.6-4.6c0-2.9,2.2-4.6,4.6-4.6
		C291.6,28.1,293.7,29.8,293.7,32.7 M285.3,32.7c0,2.4,1.7,3.9,3.8,3.9c2.1,0,3.8-1.5,3.8-3.9c0-2.4-1.7-3.9-3.8-3.9
		C287,28.8,285.3,30.3,285.3,32.7 M289.2,30.3c1.2,0,1.6,0.6,1.6,1.3c0,0.6-0.4,1-0.8,1.3l1.1,2h-0.9l-0.9-1.8h-0.9v1.8h-0.7v-4.6
		H289.2z M288.3,32.5h0.8c0.5,0,0.8-0.3,0.8-0.7c0-0.4-0.2-0.7-0.8-0.7h-0.8L288.3,32.5L288.3,32.5z"/>
</g>
</svg>
