<?xml version="1.0" encoding="utf-8"?>
<!-- Generator: Adobe Illustrator 25.4.1, SVG Export Plug-In . SVG Version: 6.00 Build 0)  -->
<svg version="1.1" id="Layer_1" xmlns="http://www.w3.org/2000/svg" xmlns:xlink="http://www.w3.org/1999/xlink" x="0px" y="0px"
	 viewBox="0 0 128 128" style="enable-background:new 0 0 128 128;" xml:space="preserve">
<style type="text/css">
	.st0{fill:#8195A6;}
</style>
<g>
	<path class="st0" d="M58.1,68.9c0,3.3,2.7,5.9,5.9,5.9c3.3,0,5.9-2.7,5.9-5.9s-2.7-5.9-5.9-5.9C60.7,62.9,58.1,65.6,58.1,68.9z"/>
	<path class="st0" d="M64,0C28.7,0,0,28.7,0,64s28.7,64,64,64s64-28.7,64-64S99.3,0,64,0z M73.8,68.9c0,4.6-3.1,8.4-7.4,9.4V97h8.8
		c1.7,0,2.8,1.9,1.9,3.4l-11.2,19.4c-0.9,1.5-3,1.5-3.9,0l-11.2-19.4C50,98.9,51.1,97,52.8,97h8.8V78.3c-4.2-1.1-7.4-4.9-7.4-9.4
		s3.1-8.4,7.4-9.4v-19c-8.1-1.2-14.3-8.1-14.3-16.5c0-9.2,7.5-16.7,16.7-16.7s16.7,7.5,16.7,16.7c0,8.4-6.2,15.4-14.3,16.5v19
		C70.6,60.5,73.8,64.3,73.8,68.9z"/>
</g>
</svg>
