<?xml version="1.0" encoding="utf-8"?>
<!-- Generator: Adobe Illustrator 25.2.3, SVG Export Plug-In . SVG Version: 6.00 Build 0)  -->
<svg version="1.1" id="Layer_1" xmlns="http://www.w3.org/2000/svg" xmlns:xlink="http://www.w3.org/1999/xlink" x="0px" y="0px"
	 viewBox="0 0 128 128" style="enable-background:new 0 0 128 128;" xml:space="preserve">
<style type="text/css">
	.st0{fill:#393E47;}
	.st1{fill:#B59959;}
	.st2{fill:#C0C0C0;}
</style>
<g>
	<circle class="st0" cx="64" cy="64" r="59"/>
	<path class="st1" d="M64,10c29.78,0,54,24.22,54,54s-24.22,54-54,54S10,93.78,10,64S34.22,10,64,10 M64,0C28.65,0,0,28.65,0,64
		s28.65,64,64,64s64-28.65,64-64S99.35,0,64,0L64,0z"/>
</g>
<g>
	<path class="st2" d="M65.83,88.81V72.01c3.66-0.83,6.39-4.1,6.39-8.01s-2.73-7.18-6.39-8.01V39.19c5.18-0.87,9.13-5.37,9.13-10.79
		c0-6.05-4.9-10.95-10.95-10.95s-10.95,4.9-10.95,10.95c0,5.42,3.95,9.92,9.13,10.79v16.81c-3.66,0.83-6.39,4.1-6.39,8.01
		s2.73,7.18,6.39,8.01v16.81c-5.18,0.87-9.13,5.37-9.13,10.79c0,6.05,4.9,10.95,10.95,10.95s10.95-4.9,10.95-10.95
		C74.95,94.18,71,89.68,65.83,88.81z M57.61,64c0-3.53,2.86-6.39,6.39-6.39c3.53,0,6.39,2.86,6.39,6.39c0,3.53-2.86,6.39-6.39,6.39
		S57.61,67.53,57.61,64z"/>
</g>
</svg>
