<?xml version="1.0" encoding="utf-8"?>
<!-- Generator: Adobe Illustrator 26.0.1, SVG Export Plug-In . SVG Version: 6.00 Build 0)  -->
<svg version="1.1" id="Layer_1" xmlns="http://www.w3.org/2000/svg" xmlns:xlink="http://www.w3.org/1999/xlink" x="0px" y="0px"
	 viewBox="0 0 32.2 32" style="enable-background:new 0 0 32.2 32;" xml:space="preserve">
<style type="text/css">
	.st0{fill:#0065A9;}
	.st1{fill:#007ACC;}
	.st2{fill:#1F9CF0;}
</style>
<path class="st0" d="M31.1,3.4l-6.6-3.2c-0.8-0.4-1.7-0.2-2.3,0.4L0.4,20.4c-0.5,0.5-0.6,1.3-0.1,1.9c0,0,0.1,0.1,0.1,0.1L2.2,24
	c0.5,0.4,1.2,0.5,1.7,0.1L30.1,4.2c0.6-0.4,1.4-0.3,1.9,0.3c0.2,0.2,0.3,0.5,0.3,0.8V5.2C32.2,4.4,31.7,3.7,31.1,3.4z"/>
<path class="st1" d="M31.1,28.6l-6.6,3.2c-0.8,0.4-1.7,0.2-2.3-0.4L0.4,11.6c-0.5-0.5-0.6-1.3-0.1-1.9c0,0,0.1-0.1,0.1-0.1L2.2,8
	C2.7,7.6,3.4,7.6,3.9,8l26.1,19.8c0.6,0.4,1.4,0.3,1.9-0.3c0.2-0.2,0.3-0.5,0.3-0.8v0.1C32.2,27.6,31.7,28.3,31.1,28.6z"/>
<path class="st2" d="M24.4,31.8c-0.8,0.4-1.7,0.2-2.3-0.4c0.5,0.5,1.2,0.5,1.7,0c0.2-0.2,0.3-0.5,0.3-0.8V1.4c0-0.7-0.5-1.2-1.2-1.2
	c-0.3,0-0.6,0.1-0.8,0.3c0.6-0.6,1.5-0.8,2.3-0.4L31,3.4c0.7,0.3,1.1,1,1.1,1.8v21.6c0,0.8-0.4,1.5-1.1,1.8L24.4,31.8z"/>
</svg>
